M48
;DRILL file {KiCad 4.0.4-stable} date 03/07/17 16:47:57
;FORMAT={-:-/ absolute / metric / decimal}
FMAT,2
METRIC,TZ
T1C0.800
T2C0.810
T3C1.000
T4C2.300
%
G90
G05
M71
T1
X2.54Y19.05
X5.08Y15.24
X5.08Y12.7
X7.62Y15.24
X7.62Y12.7
X8.89Y19.05
T2
X11.97Y31.75
X11.97Y29.21
X13.97Y31.75
X13.97Y29.21
T3
X3.81Y3.81
X6.35Y3.81
X12.7Y17.78
X12.7Y15.24
X12.7Y12.7
X12.7Y10.16
X13.97Y2.54
X15.24Y17.78
X15.24Y15.24
X15.24Y12.7
X15.24Y10.16
X16.51Y2.54
X19.05Y2.54
T4
X9.27Y36.48
X9.27Y24.48
T0
M30
